PathFileType	4	(X/Y/Z)	DARI_DATA/Captury_Subj5_bilateral_squat03.trc
DataRate	CameraRate	NumFrames	NumMarkers	Units	OrigDataRate	OrigDataStartFrame	OrigNumFrames
60	60	5	47	mm	59.99879837036133	119	236
Frame#	Time		LeftUpLeg_		RightUpLeg_		LeftLeg_		RightLeg_		LeftFoot_		RightFoot_		LeftToeBase_		RightToeBase_		Knee_Lateral_r		Knee_Lateral_l		Ankle_Lateral_r		Ankle_Lateral_l		LeftArm_		LeftForeArm_		LeftHand_		LeftHandEE		RightArm_		RightForeArm_		RightHand_		RightHandEE		Spine_		Spine1_		Spine2_		Spine3_		Spine4_		Spine5_		Spine_x		Spine_y		Spine_z		RASI		LASI		RIPS		LIPS		RTHI		LTHI		RTIB		LTIB		RTOE		LTOE		RHEE		LHEE		RHipAngles		LHipAngles		RKneeAngles		LKneeAngles		RAnkleAngles		LAnkleAngles
			X1	Y1	Z1	X2	Y2	Z2	X3	Y3	Z3	X4	Y4	Z4	X5	Y5	Z5	X6	Y6	Z6	X7	Y7	Z7	X8	Y8	Z8	X9	Y9	Z9	X10	Y10	Z10	X11	Y11	Z11	X12	Y12	Z12	X13	Y13	Z13	X14	Y14	Z14	X15	Y15	Z15	X16	Y16	Z16	X17	Y17	Z17	X18	Y18	Z18	X19	Y19	Z19	X20	Y20	Z20	X21	Y21	Z21	X22	Y22	Z22	X23	Y23	Z23	X24	Y24	Z24	X25	Y25	Z25	X26	Y26	Z26	X27	Y27	Z27	X28	Y28	Z28	X29	Y29	Z29	X30	Y30	Z30	X31	Y31	Z31	X32	Y32	Z32	X33	Y33	Z33	X34	Y34	Z34	X35	Y35	Z35	X36	Y36	Z36	X37	Y37	Z37	X38	Y38	Z38	X39	Y39	Z39	X40	Y40	Z40	X41	Y41	Z41	X42	Y42	Z42	X43	Y43	Z43	X44	Y44	Z44	X45	Y45	Z45	X46	Y46	Z46	X47	Y47	Z47

119	1.96667	-88.20461	609.83081	317.68954	102.91014	599.36072	312.19623	-208.86523	475.64575	-112.09766	169.96800	491.47809	-136.29712	-176.89026	87.23877	71.90204	183.63524	102.58566	48.94354	-214.14737	33.66080	-58.43300	199.10030	34.87537	-79.20505	223.23743	492.57767	-131.43073	-260.94266	474.04846	-99.93567	235.00934	106.23461	75.00967	-224.13628	86.04660	105.04488	-153.25269	1055.53589	-26.42733	-224.14372	1122.38904	-348.35513	-218.68889	1179.12817	-631.80298	-215.38693	1183.71301	-737.16687	156.58385	1053.34985	-32.66538	256.87756	1085.14990	-352.13730	242.92128	1147.70251	-634.06665	240.78555	1170.72900	-737.01660	10.18132	690.10730	250.36615	10.27977	756.61658	172.29086	10.42327	822.70850	144.10822	9.60639	917.27289	136.95709	4.65321	1044.61316	73.20145	1663134.00000	0.00000	1663136.00000	63.78092	687.17084	248.82550	10.97872	725.73871	210.19551	13.40007	730.17841	285.97318	162.77667	563.74854	184.38974	-158.82095	581.36713	193.63364	54.51381	690.42200	294.60022	-31.24555	695.12024	297.06525	208.48120	547.86279	112.87703	-216.52809	542.46863	137.35420	220.58502	311.52756	-64.49680	-232.74655	233.51778	-12.81163	208.81436	7.83952	-156.19547	-234.19083	12.39387	-135.23668	173.09673	34.74316	110.49693	-178.44690	14.63210	128.72049	-123.94720	7.72269	-2.46058	-121.32230	9.56071	8.01926	-95.92358	-0.10880	-0.02787	-93.18819	-0.12296	0.06477	-13.17624	2.11347	-3.12012	-19.43529	-1.08889	12.12042
120	1.98333	-88.70484	611.36511	317.10861	102.41119	600.77197	311.90585	-208.95605	475.64215	-112.31039	170.52887	491.51962	-136.09607	-176.70471	87.34909	71.88158	183.64595	102.48618	48.88852	-214.01044	33.69198	-58.40701	199.30736	34.81721	-79.25810	223.78651	492.58737	-131.09570	-261.03317	473.96765	-100.15758	234.96655	106.09977	75.06469	-223.97363	86.11716	104.99025	-153.32539	1057.42102	-26.58603	-224.35342	1123.73962	-348.59415	-218.42052	1179.85632	-632.15625	-215.15652	1184.62610	-737.51306	156.53346	1055.38477	-32.02601	257.38669	1086.83813	-351.35608	243.90904	1148.72693	-633.45520	241.48393	1171.36658	-736.48450	9.80969	691.30200	249.56955	10.03370	757.75446	171.44083	10.20292	823.88800	143.34561	9.33117	918.47986	136.52032	4.35606	1046.12964	73.37909	1663134.00000	0.00000	1663136.00000	63.40965	688.33105	248.11040	10.67744	726.76105	209.24814	13.00384	731.52319	285.00922	162.42297	564.58295	184.32977	-159.17679	582.40857	193.08467	54.08549	691.78253	293.85886	-31.67444	696.53601	296.19351	208.44983	548.59985	113.01065	-216.83224	543.18860	136.93993	220.92047	311.49567	-64.32106	-232.65369	233.53204	-12.93671	209.07498	7.87947	-156.27615	-234.08492	12.46310	-135.21312	173.52478	34.60922	110.47401	-178.12630	14.75587	128.72076	-124.02614	7.78565	-2.42633	-121.39110	9.57393	8.18663	-95.71214	-0.09471	-0.04689	-93.03305	-0.08450	0.04571	-13.16288	1.97302	-2.77935	-19.44606	-1.00172	12.10911
121	2.00000	-89.09225	613.65167	316.41693	102.05023	603.38916	311.53107	-208.92609	475.78143	-112.43430	171.05208	491.59766	-135.70837	-176.76393	87.50943	71.81763	183.57587	102.34134	48.84784	-214.01689	33.71673	-58.43015	199.38954	34.77509	-79.33421	224.29962	492.65768	-130.59988	-261.00626	474.08032	-100.29829	234.85132	105.89397	75.12066	-224.05063	86.29928	104.90175	-153.45862	1060.46265	-26.50361	-224.77370	1126.11450	-348.58490	-218.46153	1181.71753	-632.23999	-214.13971	1186.29993	-737.56708	156.43579	1058.22986	-31.41280	257.64450	1089.57837	-350.64075	245.37956	1151.10291	-632.87488	242.38829	1173.09778	-736.02887	9.35339	693.27356	248.40697	9.61141	759.58588	170.16158	9.77763	825.76312	142.17386	8.89730	920.38617	135.81984	4.06899	1048.48962	73.59681	1663134.00000	0.00000	1663136.00000	62.96077	690.39539	247.03668	10.20374	728.43304	207.82367	12.42561	733.76361	283.54999	162.29199	566.36725	184.30280	-159.35229	583.63635	192.52451	53.57242	694.16937	292.74652	-32.19939	698.77448	294.93900	208.47876	550.03918	113.15726	-217.02679	544.45197	136.50145	221.19411	311.45712	-64.05128	-232.67136	233.68207	-13.04585	209.18639	7.98675	-156.40063	-234.05424	12.48433	-135.24498	173.87886	34.40343	110.43433	-178.18042	14.97022	128.72586	-124.13998	7.79187	-2.27417	-121.56220	9.63047	8.18758	-95.32787	-0.12449	-0.06986	-92.76454	-0.05333	0.04570	-13.15330	1.83457	-2.43310	-19.39580	-0.98754	12.10430
122	2.01667	-89.55859	617.13330	315.55856	101.58347	606.75769	310.89798	-208.81216	476.03894	-112.40491	171.62410	491.72705	-135.35754	-177.10603	87.64999	71.67949	183.54272	102.22913	48.72839	-214.19037	33.68083	-58.54340	199.49596	34.77242	-79.49409	224.85931	492.75946	-130.11636	-260.90863	474.42764	-100.32660	234.76178	105.72765	75.11829	-224.40744	86.51627	104.74532	-153.76392	1064.55554	-26.14685	-225.23132	1129.55640	-348.32642	-218.36702	1184.68372	-632.06152	-213.24622	1189.01721	-737.36328	156.16655	1062.35181	-30.83309	257.80939	1093.32068	-349.96017	246.55655	1154.35229	-632.34351	244.08453	1176.62793	-735.45099	8.97705	696.26184	247.10454	9.32862	762.49438	168.78697	9.51455	828.73895	140.94923	8.60015	923.39954	135.12704	3.72574	1051.98962	73.91026	1663134.00000	0.00000	1663136.00000	62.58432	693.35193	245.79744	9.87580	731.15173	206.29033	12.03785	736.98212	281.98154	161.91367	568.86945	183.96693	-159.72989	586.32904	191.80954	53.16010	697.43213	291.47357	-32.61152	702.08801	293.56494	208.46790	551.88043	113.18698	-217.24944	546.57910	135.99634	221.51637	311.46967	-63.82005	-232.83620	233.91777	-13.13663	209.32118	8.12690	-156.60641	-234.10934	12.44974	-135.38936	174.21552	34.23039	110.30490	-178.65157	15.19816	128.69557	-124.11748	7.88140	-2.20350	-121.50579	9.59129	8.20088	-94.84803	-0.12551	-0.08593	-92.30439	-0.11153	0.06892	-13.13833	1.68115	-2.12875	-19.27759	-1.04833	12.10783
123	2.03333	-90.05486	621.22424	314.41345	101.09103	610.84082	309.93024	-208.64761	476.34442	-112.46753	172.10168	491.77618	-135.11230	-177.30490	87.84726	71.45052	183.43871	102.11133	48.65689	-214.13506	33.50327	-58.68858	199.42805	34.67941	-79.57411	225.32452	492.74506	-129.73514	-260.75299	474.74417	-100.42623	234.60085	105.57519	75.16148	-224.61926	86.81130	104.50102	-154.09892	1069.76782	-25.75013	-226.00778	1134.13232	-347.95920	-218.24158	1188.54382	-631.80920	-212.37648	1193.32520	-737.05273	155.84888	1067.24280	-30.32058	257.71393	1098.22253	-349.37564	248.02129	1159.11255	-631.84723	244.99232	1180.57532	-735.11212	8.55692	700.46039	246.19388	8.98697	766.89575	168.05199	9.19150	833.22638	140.42657	8.26546	927.90552	134.95876	3.38469	1056.74219	74.26930	1663134.00000	0.00000	1663136.00000	62.16525	697.54828	244.93652	9.50009	735.41919	205.43967	11.58542	741.12134	281.14282	161.54759	573.16241	182.99689	-160.10240	590.63513	190.54102	52.69478	701.55200	290.60986	-33.07855	706.21136	292.62164	208.39664	554.02075	112.99770	-217.44873	548.94775	135.32590	221.75484	311.43353	-63.62334	-232.89381	234.19789	-13.31532	209.24054	8.10774	-156.71352	-233.88997	12.15187	-135.54356	174.36722	34.09653	110.25386	-178.97723	15.56275	128.67499	-123.52632	7.97188	-2.04624	-120.91937	9.53571	8.27704	-94.29090	-0.08391	-0.09075	-91.77802	-0.09453	0.10050	-13.10704	1.51922	-1.92011	-19.07765	-1.13748	12.11852
